PathFileType	4	(X/Y/Z)	C:/Users/opensim2020/Desktop/walking_exp_matlab/subject02_walking17_run.trc	
DataRate	CameraRate	NumFrames	NumMarkers	Units	OrigDataRate	OrigDataStartFrame	OrigNumFrames	
100.00	100.00	7	51	mm	100.00	315	112	
Frame#	Time	LSHO			RELB			LANK			LTOE			LUPA			RUPA			RWRB			LKNE			RSHO			RFIN			RFRM			RASI			LTHI			LWRB			RTHI			LASI			LFHD			RKNE			LELB			LTIB			RWRA			STRN			RTIB			RFHD			RANK			RBHD			RTOE			RHEE			C7			LHEE			LFRM			CLAV			LWRA			LBHD			RBAK			LFIN			T10			LPSI			RPSI			*39			*40			*41			*42			*43			*44			*45			*46			*47			*48			*49			*50			
		X1	Y1	Z1	X2	Y2	Z2	X3	Y3	Z3	X4	Y4	Z4	X5	Y5	Z5	X6	Y6	Z6	X7	Y7	Z7	X8	Y8	Z8	X9	Y9	Z9	X10	Y10	Z10	X11	Y11	Z11	X12	Y12	Z12	X13	Y13	Z13	X14	Y14	Z14	X15	Y15	Z15	X16	Y16	Z16	X17	Y17	Z17	X18	Y18	Z18	X19	Y19	Z19	X20	Y20	Z20	X21	Y21	Z21	X22	Y22	Z22	X23	Y23	Z23	X24	Y24	Z24	X25	Y25	Z25	X26	Y26	Z26	X27	Y27	Z27	X28	Y28	Z28	X29	Y29	Z29	X30	Y30	Z30	X31	Y31	Z31	X32	Y32	Z32	X33	Y33	Z33	X34	Y34	Z34	X35	Y35	Z35	X36	Y36	Z36	X37	Y37	Z37	X38	Y38	Z38	X39	Y39	Z39	X40	Y40	Z40	X41	Y41	Z41	X42	Y42	Z42	X43	Y43	Z43	X44	Y44	Z44	X45	Y45	Z45	X46	Y46	Z46	X47	Y47	Z47	X48	Y48	Z48	X49	Y49	Z49	X50	Y50	Z50	X51	Y51	Z51	

85	0.840	-189.17557	1271.96265	1436.28137	355.82669	1209.14343	1194.94006	-37.51391	1309.52148	83.77232	-45.99670	1460.65649	40.71355	-277.47351	1228.76880	1254.64185	289.04434	1209.78931	1326.11084	289.63812	1384.90454	1023.82965	-83.45364	1438.54492	472.77347	173.13980	1279.91833	1468.90503	252.49196	1440.06689	1033.55640	323.38895	1300.51599	1109.96521	139.50801	1364.73840	915.55518	-138.88263	1391.18152	653.86694	-178.13470	1460.37402	1177.77368	244.94728	1304.74792	636.30859	-117.61826	1360.54944	935.06311	-66.95403	1378.99902	1708.08130	236.69511	1288.92969	440.19009	-310.40460	1247.50378	1123.87549	-80.38885	1355.91064	298.36923	242.68158	1380.25500	1056.86792	3.18238	1387.22595	1237.18530	226.47287	1113.72266	402.56778	76.07976	1365.43176	1689.10010	178.41982	935.73303	346.44153	50.02732	1230.29224	1601.51611	221.31526	945.70660	195.66495	113.40198	878.45123	340.68958	-16.47636	1209.25647	1489.34875	12.61272	1265.84888	60.58350	-244.42110	1366.31360	1136.14783	-18.99965	1344.65735	1411.10510	-165.64908	1430.27502	1224.96204	-89.61176	1256.50403	1622.80359	60.69880	1137.80286	1323.39319	-140.89333	1503.59521	1219.80334	16.05835	1136.52466	1219.22449	-15.85214	1150.87915	993.16455	96.87770	1152.64014	997.43341	-3357.34839	2845.96899	1034.49890																11.09283	1263.20862	1764.65308															 
86	0.850	-188.68806	1312.25659	1439.47339	353.97427	1231.53711	1200.35217	-35.33216	1310.08179	85.71467	-45.98026	1460.46387	40.55016	-274.33267	1274.26746	1254.72583	284.60980	1238.55200	1329.56958	301.82123	1402.11230	1017.52155	-83.42400	1458.19971	465.94687	170.30222	1315.21240	1472.14197	266.59924	1459.63452	1021.73584	328.95654	1320.39954	1108.96924	138.33543	1401.80725	922.06097	-139.17386	1427.54260	656.09241	-167.92117	1505.53235	1194.88879	241.20105	1357.40356	638.15112	-121.09973	1392.42310	938.10748	-66.90473	1416.32581	1709.49768	230.41919	1356.42297	443.00339	-303.48953	1299.00024	1122.94189	-80.02268	1369.88367	295.23398	253.42377	1401.78345	1049.09607	5.88210	1424.37329	1239.16406	223.66945	1183.47314	398.95001	75.96948	1402.35730	1690.30847	179.24185	1005.93097	335.62253	49.66167	1267.42480	1602.65784	219.63547	1025.82532	185.48785	115.95305	946.61993	327.81329	-18.00631	1246.11353	1490.95605	15.07878	1266.75708	63.35684	-234.96519	1416.00549	1144.96814	-18.33047	1381.97266	1413.73401	-157.46005	1471.89551	1240.19397	-90.01743	1293.66089	1624.16003	58.96742	1174.27942	1326.16785	-131.40131	1544.78003	1240.24292	13.96059	1173.29150	1221.86548	-14.56723	1187.61780	997.44196	96.90615	1188.47534	1005.42725	-3357.44800	2845.84717	1034.64380																11.26028	1300.89990	1766.01733															 
87	0.860	-188.15613	1352.23950	1443.59631	353.43155	1251.66431	1205.95459	-33.89589	1311.08850	87.72751	-46.22771	1459.98242	40.32666	-272.16168	1320.35669	1256.84924	282.31665	1267.54187	1334.47668	311.59439	1418.33875	1015.46301	-84.18385	1475.88306	459.26544	168.46126	1349.57373	1474.87988	279.15900	1478.47668	1016.59741	334.97995	1337.99280	1109.82556	138.81036	1439.44495	932.57324	-138.68726	1459.13306	654.78143	-158.36639	1548.38892	1212.43665	236.62325	1408.96277	643.10724	-123.09290	1428.13940	945.79303	-66.82352	1453.24243	1711.71741	223.12798	1423.01648	447.98187	-297.80295	1350.87634	1124.31641	-79.98470	1380.91821	294.29224	263.05661	1422.47852	1046.82153	8.56382	1461.00757	1241.42700	220.40004	1252.81787	396.30829	75.99243	1439.04150	1692.82336	179.86465	1077.29907	322.54266	49.74099	1304.68152	1604.08459	218.83430	1108.82886	174.69162	118.41016	1015.80688	311.32083	-18.32320	1281.89502	1492.29333	16.75565	1267.32214	67.15723	-225.75504	1464.14502	1154.91382	-17.46877	1419.80225	1416.21973	-150.44284	1512.00024	1256.07947	-89.67263	1331.01892	1625.49976	56.80347	1210.42126	1329.20825	-122.82331	1583.79858	1260.78027	11.87191	1210.28894	1224.63245	-14.70150	1224.71484	1002.34515	96.45367	1224.51111	1010.65747	-3357.51099	2845.97168	1034.73376																10.88706	1337.04504	1766.96753															 
88	0.870	-187.56851	1391.75000	1448.83777	353.16159	1271.15112	1212.73560	-33.01612	1312.29480	91.13058	-46.55496	1459.39124	40.12432	-271.26422	1367.11804	1260.78894	280.75418	1295.11658	1340.26355	318.86600	1434.53210	1016.80579	-85.54441	1492.21033	453.94009	168.37933	1383.34082	1477.41064	290.21576	1497.14966	1017.18945	339.51590	1354.96814	1113.09033	139.31430	1477.95715	945.07458	-137.22012	1484.73999	650.83942	-149.78352	1589.31982	1229.80981	231.79613	1460.81836	649.96552	-122.75148	1465.54333	956.19208	-66.61901	1489.74170	1715.00098	215.25081	1487.84399	456.04941	-293.47256	1402.36328	1128.24634	-80.04330	1389.44006	293.76981	271.20682	1442.76172	1048.93311	9.93548	1496.75867	1244.55225	216.38298	1321.22009	394.32071	76.36919	1475.70776	1696.75549	180.41148	1149.55042	307.59503	50.55223	1342.06934	1606.56653	217.52814	1194.30359	162.55821	121.03053	1086.84998	291.61533	-18.22567	1317.04504	1494.08777	18.05358	1268.31799	72.93539	-218.11852	1510.70996	1165.58826	-16.05993	1457.10791	1418.80640	-144.71509	1550.83215	1271.76367	-89.11189	1368.21948	1627.22656	54.65121	1246.15137	1332.81213	-115.09369	1620.93982	1280.78369	9.88837	1246.66101	1228.24976	-16.20278	1262.09314	1006.63641	95.39967	1261.14905	1013.95978	-3357.18848	2845.94897	1034.57678																10.93060	1372.17639	1768.84155															 
89	0.880	-186.68613	1430.92493	1454.86145	352.48709	1290.80347	1220.44666	-32.72881	1313.82935	96.42001	-46.97476	1458.63611	39.82755	-271.00714	1414.10876	1266.43311	279.74799	1321.49390	1346.66504	324.07834	1451.52686	1021.25629	-87.29375	1508.12720	450.31174	169.49379	1416.80139	1480.05579	299.18436	1515.95520	1021.55371	342.36856	1372.93823	1119.26770	141.74327	1513.65393	955.34509	-136.56216	1508.54700	647.96545	-142.49820	1629.03540	1246.49805	226.98863	1511.49023	657.65802	-120.13094	1502.65344	965.79736	-66.19732	1526.06396	1718.85596	207.02478	1550.40710	466.89722	-291.18289	1453.06665	1134.36804	-80.32512	1397.49878	294.22638	277.69464	1463.24609	1054.40881	13.38130	1533.67920	1248.63025	212.09178	1388.53967	392.26300	76.90553	1512.01001	1701.40100	180.98782	1223.21729	290.57486	51.70159	1379.22485	1610.14343	215.78809	1281.79919	149.80658	123.69425	1160.21106	269.36719	-17.93642	1352.78137	1496.64246	19.01015	1270.52954	80.59198	-212.06224	1556.04419	1177.32568	-14.12293	1493.93787	1422.38684	-140.04695	1588.67542	1286.81653	-87.97558	1405.20337	1630.10950	53.03762	1281.76904	1336.81152	-108.19779	1656.80994	1299.75110	8.19734	1283.81738	1232.26672	-18.64826	1299.81238	1009.55872	93.44867	1297.87354	1015.97217	-3356.95654	2846.04541	1034.36414																10.64824	1407.24988	1771.67639															 
90	0.890	-185.17825	1469.84326	1461.45898	351.53018	1311.75500	1229.31250	-32.93215	1316.45667	103.87772	-47.40394	1457.91638	39.65381	-271.06058	1461.03149	1273.37830	279.30515	1347.10449	1353.52881	327.51114	1469.78259	1027.99866	-89.62585	1524.66479	449.71008	171.42514	1450.04517	1483.12402	306.28036	1535.06726	1028.24939	343.71362	1392.52466	1127.82898	144.24980	1549.02417	965.44397	-137.55017	1531.09082	644.97986	-136.38586	1667.86426	1262.16785	222.68996	1560.84363	666.11322	-117.17361	1540.09497	971.74799	-65.48243	1562.42969	1723.02808	199.74811	1610.78333	478.99869	-290.47101	1502.71997	1142.23474	-81.33065	1406.99487	299.14697	282.58261	1484.07788	1061.82312	15.28527	1570.34875	1253.12378	208.10312	1454.98022	389.27420	77.78683	1548.47949	1706.43945	181.24194	1298.48438	271.85489	53.41125	1416.21106	1614.58850	213.20853	1371.57764	137.37617	125.72242	1235.84143	245.13982	-17.25526	1389.09778	1500.72998	19.32395	1272.94556	91.43121	-208.24683	1600.45703	1189.87109	-11.50441	1530.22559	1427.07056	-136.18785	1625.94104	1300.96326	-86.65388	1441.82104	1633.72070	51.78418	1317.44714	1341.19324	-101.92667	1691.85974	1317.11963	6.71340	1321.12842	1236.54590	-21.53321	1336.89429	1011.17950	90.93687	1335.04016	1017.49127	-3357.05249	2846.02441	1034.26526																10.81595	1443.40894	1775.87427															 
91	0.900	-182.70126	1508.99023	1468.45251	350.19305	1333.98267	1238.87891	-33.86949	1320.37488	113.74439	-47.52173	1457.78809	39.45039	-271.61530	1507.70935	1281.48767	278.57657	1372.40845	1361.27063	330.54083	1489.62073	1036.45520	-91.92542	1542.02710	452.21198	173.38820	1482.55908	1486.74011	312.47717	1555.39624	1036.44507	344.15170	1413.69727	1137.70447	146.51378	1585.29126	975.70428	-138.99049	1551.95935	645.49658	-131.30121	1706.10352	1276.88770	218.39336	1608.59778	674.57886	-114.23859	1578.42822	975.73480	-64.49706	1598.95935	1727.23938	192.44130	1668.14014	490.59116	-291.31232	1551.44177	1151.41260	-82.54509	1417.73413	308.11664	286.39578	1505.78992	1070.54395	16.47351	1606.85144	1258.38281	204.55565	1520.88892	385.00562	79.09509	1585.22424	1711.63000	181.69818	1375.83801	252.61665	55.09212	1452.76050	1619.53149	209.78281	1462.69324	125.72572	127.65067	1314.13049	219.88533	-16.09118	1426.26990	1506.25269	18.12137	1276.93433	104.53996	-205.77528	1643.78552	1202.44373	-8.35928	1565.92639	1432.60938	-132.97868	1662.92603	1314.24561	-85.23269	1478.21509	1637.87061	50.85041	1353.26721	1345.82983	-96.10233	1726.59668	1332.85864	5.31306	1358.84827	1240.75073	-24.54932	1376.13782	1012.03101	87.85826	1372.60254	1018.87054	-3357.05200	2846.14111	1034.32092																11.28896	1480.11987	1780.96130															 
